<?xml version="1.0" encoding="utf-8"?>
<!-- Generator: Adobe Illustrator 19.0.0, SVG Export Plug-In . SVG Version: 6.00 Build 0)  -->
<svg version="1.1" id="Layer_1" xmlns="http://www.w3.org/2000/svg" xmlns:xlink="http://www.w3.org/1999/xlink" x="0px" y="0px"
	 viewBox="-229 31 500 500" style="enable-background:new -229 31 500 500;" xml:space="preserve">
<style type="text/css">
	.st0{fill:url(#SVGID_1_);}
	.st1{fill:url(#SVGID_2_);}
	.st2{fill:url(#SVGID_3_);}
	.st3{fill:url(#SVGID_4_);}
	.st4{fill:#70BA65;enable-background:new    ;}
	.st5{fill:#4E9840;enable-background:new    ;}
	.st6{fill:#DEDEDE;}
	.st7{fill:#3997C8;}
	.st8{fill:#444444;}
</style>
<linearGradient id="SVGID_1_" gradientUnits="userSpaceOnUse" x1="-97.4" y1="333.4" x2="-97.4" y2="333.4">
	<stop  offset="0" style="stop-color:#7DB643"/>
	<stop  offset="1" style="stop-color:#367533"/>
</linearGradient>
<polyline class="st0" points="-97.4,333.4 -97.4,333.4 -97.4,333.4 -97.4,333.4 "/>
<g>
	<linearGradient id="SVGID_2_" gradientUnits="userSpaceOnUse" x1="-150.35" y1="333.5" x2="-150.35" y2="246.8">
		<stop  offset="0" style="stop-color:#3475BD"/>
		<stop  offset="1" style="stop-color:#47BEEF"/>
	</linearGradient>
	<path class="st1" d="M-161.5,251.2v60l22.3,22.3v-60.2l-17.9-26.5L-161.5,251.2z"/>
	
		<linearGradient id="SVGID_3_" gradientUnits="userSpaceOnUse" x1="-457.6603" y1="553.4725" x2="-457.0575" y2="553.4725" gradientTransform="matrix(0 146.9812 -31.9568 0 17600.709 67496.0625)">
		<stop  offset="0" style="stop-color:#7DB643"/>
		<stop  offset="1" style="stop-color:#367533"/>
	</linearGradient>
	<polyline class="st2" points="-97.9,228.6 -97.6,292.1 -81.2,317.2 -75.1,311.1 -75.3,251.3 -97.9,228.6 	"/>
	<linearGradient id="SVGID_4_" gradientUnits="userSpaceOnUse" x1="-96.3087" y1="328.6427" x2="-133.5237" y2="248.2996">
		<stop  offset="0" style="stop-color:#61A45F"/>
		<stop  offset="1" style="stop-color:#9ED06F"/>
	</linearGradient>
	<polyline class="st3" points="-139.2,228.6 -139.2,269.7 -139.2,269.7 -139.2,269.8 -97.4,333.4 -97.6,292.1 -139.2,228.6 	"/>
	<polyline class="st4" points="-139.2,228.6 -155.5,245 -139.2,269.7 -139.2,228.6 -139.2,228.6 	"/>
	<polyline class="st5" points="-97.6,292.1 -97.4,333.4 -97.4,333.4 -81.2,317.2 -97.6,292.1 	"/>
	<path id="XMLID_27_" class="st6" d="M-139.2,269.8v0.4V269.8L-139.2,269.8"/>
	<polyline class="st7" points="-155.5,245 -155.9,245.5 -157.1,246.7 -139.2,273.2 -139.2,270.3 -139.2,269.8 -155.5,245 
		-155.5,245 -155.5,245 	"/>
	<g id="XMLID_33_">
		<g>
			<defs>
				<polyline id="SVGID_5_" points="-139.2,269.7 -139.2,269.8 -139.2,269.8 -139.2,269.7 -139.2,269.7 				"/>
			</defs>
			<clipPath id="SVGID_6_">
				<use xlink:href="#SVGID_5_"  style="overflow:visible;"/>
			</clipPath>
		</g>
	</g>
	<path id="XMLID_28_" class="st8" d="M-49.9,304.2V260h2.3c0.8,0,1.2,0.4,1.3,1.1l0.4,6.7c2-2.5,4.3-4.6,7-6.2s5.6-2.3,8.9-2.3
		c2.4,0,4.5,0.4,6.4,1.2c1.8,0.8,3.4,1.9,4.6,3.3c1.2,1.5,2.1,3.2,2.7,5.2c0.6,2,0.9,4.4,0.9,6.9v28.3h-4.2V276
		c0-4.1-0.9-7.4-2.8-9.8c-1.9-2.4-4.8-3.5-8.7-3.5c-2.9,0-5.6,0.7-8,2.2c-2.5,1.5-4.7,3.5-6.6,6.2v33.2L-49.9,304.2L-49.9,304.2z"/>
	<path id="XMLID_40_" class="st8" d="M11.2,259.3c2.5,0,4.8,0.4,6.9,1.3c2.1,0.9,4,2.1,5.5,3.7c1.6,1.6,2.8,3.7,3.7,6.1
		c0.9,2.4,1.3,5.1,1.3,8.3c0,0.7-0.1,1.1-0.3,1.3c-0.2,0.2-0.5,0.4-0.9,0.4H-4.7v0.8c0,3.3,0.4,6.2,1.2,8.7s1.9,4.6,3.3,6.3
		c1.4,1.7,3.2,3,5.2,3.8c2,0.9,4.3,1.3,6.8,1.3c2.2,0,4.2-0.2,5.8-0.7s3-1,4.1-1.6s2-1.2,2.7-1.6c0.7-0.5,1.1-0.7,1.4-0.7
		c0.4,0,0.7,0.1,0.9,0.4l1.2,1.4c-0.7,0.9-1.7,1.7-2.8,2.5c-1.2,0.8-2.5,1.4-3.9,2c-1.4,0.5-3,1-4.6,1.3c-1.7,0.3-3.3,0.5-5,0.5
		c-3,0-5.8-0.5-8.3-1.6c-2.5-1-4.7-2.6-6.4-4.6c-1.8-2-3.2-4.5-4.2-7.4s-1.5-6.3-1.5-10c0-3.2,0.5-6.1,1.4-8.8
		c0.9-2.7,2.2-5,3.9-6.9c1.7-1.9,3.8-3.5,6.3-4.5C5.2,259.8,8,259.3,11.2,259.3z M11.5,262.3c-2.3,0-4.4,0.3-6.2,1
		c-1.8,0.7-3.4,1.7-4.8,3c-1.3,1.3-2.4,2.9-3.3,4.7c-0.8,1.8-1.4,3.9-1.6,6.1h29.6c0-2.3-0.3-4.4-1-6.2c-0.7-1.8-1.6-3.4-2.8-4.7
		s-2.7-2.2-4.3-2.9C15.4,262.6,13.5,262.3,11.5,262.3z"/>
	<path id="XMLID_43_" class="st8" d="M53.1,259.3c3.2,0,6.1,0.5,8.7,1.6c2.5,1.1,4.7,2.6,6.4,4.6c1.7,2,3.1,4.4,4,7.2
		s1.4,5.9,1.4,9.4s-0.5,6.6-1.4,9.4s-2.3,5.2-4,7.1c-1.7,2-3.9,3.5-6.4,4.6s-5.4,1.6-8.7,1.6c-3.2,0-6.1-0.5-8.7-1.6
		c-2.5-1.1-4.7-2.6-6.5-4.6s-3.1-4.4-4-7.1c-0.9-2.8-1.4-5.9-1.4-9.4s0.5-6.6,1.4-9.4s2.3-5.2,4-7.2c1.8-2,3.9-3.5,6.5-4.6
		C47,259.8,49.9,259.3,53.1,259.3z M52.9,301.8c2.6,0,4.9-0.5,6.9-1.4s3.6-2.2,4.9-3.9c1.3-1.7,2.3-3.7,3-6.1s1-5.1,1-8.1
		c0-2.9-0.3-5.6-1-8s-1.6-4.5-3-6.2c-1.3-1.7-3-3-4.9-4c-2-0.9-4.3-1.4-6.9-1.4s-4.9,0.5-6.9,1.4c-2,0.9-3.6,2.2-4.9,4
		c-1.3,1.7-2.3,3.8-3,6.2s-1,5.1-1,8c0,3,0.3,5.7,1,8.1s1.7,4.4,3,6.1s3,3,4.9,3.9S50.2,301.8,52.9,301.8z"/>
	<path id="XMLID_44_" class="st8" d="M100.1,303.3h-9.9l-18-45.4h9.1c0.8,0,1.5,0.2,2,0.6c0.5,0.4,0.9,0.9,1.1,1.5l8.8,24.3
		c0.5,1.4,0.9,2.8,1.3,4.2c0.3,1.4,0.6,2.7,0.9,4.1c0.3-1.4,0.6-2.7,0.9-4.1s0.8-2.7,1.3-4.2l9-24.3c0.2-0.6,0.6-1.1,1.1-1.5
		s1.2-0.6,1.9-0.6h8.6L100.1,303.3z"/>
	<rect id="XMLID_45_" x="120.5" y="258.3" class="st8" width="11.4" height="45.4"/>
	<path id="XMLID_46_" class="st8" d="M139.3,303.8V258h6.7c1.4,0,2.4,0.7,2.8,2l0.7,3.4c0.8-0.9,1.6-1.7,2.5-2.5
		c0.9-0.7,1.8-1.4,2.8-1.9s2.1-1,3.2-1.3c1.1-0.3,2.4-0.5,3.8-0.5c2.9,0,5.2,0.8,7.1,2.3c1.9,1.6,3.2,3.6,4.2,6.2
		c0.7-1.5,1.6-2.8,2.7-3.9c1.1-1.1,2.2-2,3.5-2.7s2.6-1.2,4.1-1.5c1.4-0.3,2.9-0.5,4.3-0.5c2.5,0,4.8,0.4,6.7,1.2
		c2,0.8,3.6,1.9,4.9,3.4s2.4,3.3,3.1,5.4c0.7,2.1,1,4.6,1,7.4v29.1h-11v-29.1c0-2.9-0.6-5.1-1.9-6.6s-3.1-2.2-5.6-2.2
		c-1.1,0-2.2,0.2-3.1,0.6c-1,0.4-1.8,0.9-2.5,1.7c-0.7,0.7-1.3,1.6-1.7,2.7c-0.4,1.1-0.6,2.4-0.6,3.8v29.1h-11v-29.1
		c0-3.1-0.6-5.3-1.8-6.7c-1.2-1.4-3.1-2.1-5.5-2.1c-1.6,0-3.1,0.4-4.4,1.2c-1.4,0.8-2.7,1.9-3.9,3.2v33.5h-11.1V303.8z"/>
	<rect id="XMLID_47_" x="120.5" y="243" class="st8" width="11.4" height="9.4"/>
</g>
</svg>
